<svg width="62" height="62" viewBox="0 0 62 62" fill="none" xmlns="http://www.w3.org/2000/svg">
<path d="M24.8334 4.79163C24.8334 2.23246 26.8992 0.166626 29.4584 0.166626C32.0176 0.166626 34.0834 2.23246 34.0834 4.79163C34.0834 7.35079 32.0176 9.41663 29.4584 9.41663C26.8992 9.41663 24.8334 7.35079 24.8334 4.79163ZM61.8334 18.6666V29.4583L58.6576 30.5375C58.3979 32.3738 57.485 34.0549 56.0861 35.2725C54.6872 36.4902 52.8963 37.1626 51.0417 37.1666H50.7951C50.3634 39.2633 49.3459 41.1441 47.9584 42.655V61.8333H40.2501V46.4166H39.4792C38.8317 46.4166 38.1842 46.3241 37.5676 46.2316L23.8776 43.95L20.4242 50.1475L22.7367 61.8333H14.9051L12.5001 50.2708C12.4076 49.3458 12.5001 48.4208 12.9934 47.6191L16.1384 42.0383C14.6079 41.1868 13.3254 39.9515 12.4172 38.454C11.5089 36.9564 11.0062 35.2482 10.9584 33.4975C10.8351 33.96 10.7734 34.6383 10.8659 35.625C10.9584 36.9816 11.2976 38.9858 11.0817 41.2058C10.9584 43.4258 9.9409 45.7075 8.6459 47.2183C7.32007 48.7291 5.8709 49.7775 4.32924 50.5791L2.1709 48.4208C2.75674 46.9716 3.34257 45.6766 3.4659 44.4741C3.6509 43.3333 3.43507 42.4083 3.0959 41.5758L1.46174 38.0916C0.814238 36.5191 0.0125708 34.2375 0.166738 31.555C0.259237 28.9341 1.7084 25.5116 4.45257 23.6308C7.22757 21.75 10.2184 21.4725 12.6542 21.9966C14.1959 22.305 15.7684 23.045 17.1251 24.0933C18.2659 23.5691 19.5917 23.2916 20.9792 23.2916H21.7501V19.0058C21.7501 15.9225 23.8467 13.0858 26.8684 12.5925C27.7537 12.4397 28.6616 12.4823 29.5287 12.7171C30.3958 12.9519 31.2011 13.3733 31.8883 13.9519C32.5755 14.5304 33.128 15.2522 33.5072 16.0665C33.8863 16.8809 34.083 17.7683 34.0834 18.6666V23.2916H38.7084V21.75C38.7084 14.9358 44.2276 9.41663 51.0417 9.41663H61.8334L59.0892 13.5483C60.7542 14.6583 61.8334 16.5391 61.8334 18.6666ZM55.6667 28.5333L52.4601 23.415C52.0592 22.7675 51.0417 23.045 51.0417 23.8158V34.0833C53.6009 34.0833 55.6667 32.0175 55.6667 29.4583V28.5333Z" fill="#1B4C5A"/>
</svg>
